<svg width="110" height="126" viewBox="0 0 110 126" fill="none" xmlns="http://www.w3.org/2000/svg">
<g filter="url(#filter0_f_1_39)">
<ellipse cx="55" cy="109.662" rx="14.625" ry="6.33803" fill="black" fill-opacity="0.4"/>
</g>
<g filter="url(#filter1_d_1_39)">
<path d="M54.999 88.9616C73.1844 88.9616 87.9265 74.0529 87.9265 55.6621C87.9265 37.2712 73.1844 22.3625 54.999 22.3625C36.8136 22.3625 22.0715 37.2712 22.0715 55.6621C22.0715 74.0529 36.8136 88.9616 54.999 88.9616Z" fill="white"/>
<path d="M53.7178 105.16L54.999 107.265L56.2802 105.16L63.4999 93.3023C80.6115 89.3779 93.4107 73.8896 93.4107 55.4394C93.4107 34.0456 76.1965 16.6127 54.999 16.6127C33.8013 16.6127 16.5893 34.0457 16.5893 55.4394C16.5893 73.8895 29.3864 89.3778 46.4981 93.3023L53.7178 105.16ZM54.999 84.8684C38.9534 84.8684 25.9155 71.7095 25.9155 55.4394C25.9155 39.1694 38.9533 26.0124 54.999 26.0124C71.0445 26.0124 84.0825 39.1714 84.0825 55.4415C84.0825 71.7115 71.0467 84.8684 54.999 84.8684Z" fill="#0742DB" stroke="white" stroke-width="3"/>
</g>
<path d="M41.115 34.5694L55.0005 55.0997L68.8861 34.5694H41.115Z" fill="#69D6F4"/>
<path d="M54.9994 56.2454L40.2349 34.4136L41.2643 33.647L54.9994 53.9561L68.7365 33.647L69.7659 34.4136L54.9994 56.2454Z" fill="#AE7D5E"/>
<path d="M54.9995 67.0218C48.7355 67.0218 43.6395 61.6746 43.6395 55.1016C43.6395 48.5287 48.7355 43.1815 54.9995 43.1815C61.2635 43.1815 66.3595 48.5287 66.3595 55.1016C66.3595 61.6746 61.2635 67.0218 54.9995 67.0218ZM54.9995 44.5034C49.4309 44.5034 44.9013 49.2563 44.9013 55.0996C44.9013 60.9429 49.4309 65.6958 54.9995 65.6958C60.5682 65.6958 65.0977 60.9429 65.0977 55.0996C65.0977 49.2563 60.5682 44.5034 54.9995 44.5034Z" fill="#AE7D5E"/>
<path d="M54.9998 71.6581C46.3001 71.6581 39.2216 64.2305 39.2216 55.1018C39.2216 45.9731 46.3001 38.5435 54.9998 38.5435C63.6995 38.5435 70.778 45.9711 70.778 55.0998C70.778 64.2285 63.6995 71.6581 54.9998 71.6581ZM54.9998 39.8675C46.9954 39.8675 40.4833 46.7007 40.4833 55.0998C40.4833 63.4988 46.9954 70.332 54.9998 70.332C63.0041 70.332 69.5162 63.4988 69.5162 55.0998C69.5162 46.7007 63.0041 39.8675 54.9998 39.8675Z" fill="#AE7D5E"/>
<path d="M55 76.2941C43.8646 76.2941 34.8036 66.7862 34.8036 55.0997C34.8036 43.4132 43.8646 33.9073 55 33.9073C66.1354 33.9073 75.1964 43.4132 75.1964 55.0997C75.1964 66.7862 66.1354 76.2921 55 76.2921V76.2941ZM55 35.2314C44.56 35.2314 36.0654 44.1449 36.0654 55.0997C36.0654 66.0546 44.56 74.9681 55 74.9681C65.44 74.9681 73.9347 66.0546 73.9347 55.0997C73.9347 44.1449 65.44 35.2314 55 35.2314Z" fill="#AE7D5E"/>
<path d="M54.9997 52.4516C53.607 52.4516 52.4741 53.6404 52.4741 55.0996C52.4741 56.5589 53.607 57.7497 54.9997 57.7497C56.3923 57.7497 57.5232 56.561 57.5232 55.0996C57.5232 53.6383 56.3904 52.4516 54.9997 52.4516Z" fill="#FEB902"/>
<path d="M55.0006 62.3858C51.1723 62.3858 48.0588 59.1188 48.0588 55.1017C48.0588 51.0846 51.1723 47.8176 55.0006 47.8176C58.829 47.8176 61.9424 51.0846 61.9424 55.1017C61.9424 59.1188 58.829 62.3858 55.0006 62.3858ZM55.0006 49.1396C51.8676 49.1396 49.3206 51.8142 49.3206 55.0997C49.3206 58.3851 51.8696 61.0598 55.0006 61.0598C58.1317 61.0598 60.6806 58.3851 60.6806 55.0997C60.6806 51.8142 58.1317 49.1396 55.0006 49.1396Z" fill="#AE7D5E"/>
<path d="M54.9999 37.2194C53.9549 37.2194 53.1052 38.111 53.1052 39.2075C53.1052 40.304 53.9549 41.1935 54.9999 41.1935C56.0448 41.1935 56.8925 40.3019 56.8925 39.2075C56.8925 38.113 56.0429 37.2194 54.9999 37.2194Z" fill="#F95555"/>
<path d="M61.9432 55.0998C60.9001 55.0998 60.0505 55.9914 60.0505 57.0879C60.0505 58.1844 60.9001 59.0739 61.9432 59.0739C62.9862 59.0739 63.8378 58.1823 63.8378 57.0879C63.8378 55.9934 62.9881 55.0998 61.9432 55.0998Z" fill="#AEAEAE"/>
<path d="M44.2713 55.0998C43.2263 55.0998 42.3786 55.9914 42.3786 57.0879C42.3786 58.1844 43.2283 59.0739 44.2713 59.0739C45.3143 59.0739 46.164 58.1823 46.164 57.0879C46.164 55.9934 45.3143 55.0998 44.2713 55.0998Z" fill="#AEAEAE"/>
<path d="M63.2054 65.698C62.1624 65.698 61.3127 66.5896 61.3127 67.6841C61.3127 68.7785 62.1624 69.6701 63.2054 69.6701C64.2485 69.6701 65.1001 68.7785 65.1001 67.6841C65.1001 66.5896 64.2504 65.698 63.2054 65.698Z" fill="#4DC889"/>
<path d="M53.7223 74.925L53.7712 74.265L53.7145 74.925L53.0856 74.8778L53.1754 73.5559L53.8044 73.603L53.7243 74.925H53.7223ZM58.1933 74.6565L58.0156 73.3447L59.2383 73.1623L59.4727 74.4085L58.8183 74.5642L58.1933 74.6565ZM48.892 73.2095L48.6635 73.8264L48.0853 73.5948L48.4916 72.3712L49.0776 72.5762L48.892 73.2095ZM63.1682 73.0312L62.5764 71.908L63.1037 71.5842L63.4338 72.1499L63.7151 72.7422L63.1682 73.0312ZM44.0949 71.3444L43.5987 70.9673L44.2785 69.8974L44.7961 70.2417L44.4679 70.8074L44.0968 71.3423L44.0949 71.3444ZM67.4653 70.0552L66.6098 69.1268L67.0453 68.6697L67.5005 69.1288L67.9223 69.6228L67.4653 70.0552ZM40.7724 68.1799L40.3017 67.6245L39.9306 67.0895L40.9521 66.3107L41.3232 66.8456L41.7451 67.3375L40.7724 68.1799ZM70.8307 66.0012L69.7662 65.29L70.4381 64.1833L71.5026 64.8473L70.8307 66.0012ZM37.6394 63.0417L38.2215 62.7875L37.6375 63.0417L37.3972 62.4411L38.5281 61.9083L38.7879 62.4985L38.2195 62.7875L37.6375 63.0417H37.6394ZM73.0554 61.0864L71.8757 60.7667L72.0124 60.1436L72.6316 60.2809L73.2351 60.4756L73.0554 61.0864ZM36.3425 58.506L36.155 57.1799L37.405 56.9934L37.5828 58.301L36.3425 58.5081V58.506ZM73.9344 55.776H72.6726V54.3721L73.9344 54.3598V55.776ZM37.3875 53.2817L36.1393 53.0808L36.2351 52.427L36.8581 52.5275L36.2351 52.425L36.3269 51.7958L37.534 51.9249L37.4832 52.6258L37.3875 53.2817ZM72.1394 50.6521L71.8601 49.3834L73.032 49.0391L73.2273 49.7073L73.3699 50.3529L72.1394 50.6501V50.6521ZM38.5086 48.3443L37.3699 47.834L37.8875 46.5981L39.034 47.1535L38.5106 48.3443H38.5086ZM70.3854 45.975L69.7564 44.8416L70.8073 44.155L71.4772 45.3069L70.3873 45.975H70.3854ZM41.2744 43.4193L40.288 42.5912L40.6826 42.0768L41.667 42.9028L41.2744 43.4193ZM67.4555 41.9641L66.5746 41.0397L67.4126 40.0949L67.9028 40.5601L68.3501 41.0295L67.4575 41.9661L67.4555 41.9641ZM44.2374 40.3326L43.5382 39.2792L44.0753 38.8713L44.6086 38.5167L45.2863 39.6337L44.2374 40.3326ZM63.6057 38.9266L62.5334 38.2708L63.1037 37.1353L63.6975 37.4489L64.2425 37.783L63.6057 38.9266ZM48.4447 37.8445L48.017 36.6311L49.2299 36.1741L49.6284 37.4305L48.4447 37.8445ZM59.1894 37.0288L58.5253 36.9263L57.9101 36.7767L58.1933 35.4854L58.8086 35.6351L59.3984 35.7765L59.1875 37.0267L59.1894 37.0288ZM53.1247 36.6496L53.0192 35.3338L54.2927 35.2354L54.3825 36.5574L53.1247 36.6496Z" fill="#AE7D5E"/>
<defs>
<filter id="filter0_f_1_39" x="32.375" y="95.3239" width="45.25" height="28.6761" filterUnits="userSpaceOnUse" color-interpolation-filters="sRGB">
<feFlood flood-opacity="0" result="BackgroundImageFix"/>
<feBlend mode="normal" in="SourceGraphic" in2="BackgroundImageFix" result="shape"/>
<feGaussianBlur stdDeviation="4" result="effect1_foregroundBlur_1_39"/>
</filter>
<filter id="filter1_d_1_39" x="0.0892944" y="0.112671" width="109.821" height="125.036" filterUnits="userSpaceOnUse" color-interpolation-filters="sRGB">
<feFlood flood-opacity="0" result="BackgroundImageFix"/>
<feColorMatrix in="SourceAlpha" type="matrix" values="0 0 0 0 0 0 0 0 0 0 0 0 0 0 0 0 0 0 127 0" result="hardAlpha"/>
<feOffset/>
<feGaussianBlur stdDeviation="7.5"/>
<feComposite in2="hardAlpha" operator="out"/>
<feColorMatrix type="matrix" values="0 0 0 0 0 0 0 0 0 0 0 0 0 0 0 0 0 0 0.4 0"/>
<feBlend mode="normal" in2="BackgroundImageFix" result="effect1_dropShadow_1_39"/>
<feBlend mode="normal" in="SourceGraphic" in2="effect1_dropShadow_1_39" result="shape"/>
</filter>
</defs>
</svg>
