<svg width="112" height="126" viewBox="0 0 112 126" fill="none" xmlns="http://www.w3.org/2000/svg">
<g filter="url(#filter0_f_1_89)">
<ellipse cx="56" cy="109.662" rx="15" ry="6.33803" fill="black" fill-opacity="0.4"/>
</g>
<g filter="url(#filter1_d_1_89)">
<path d="M55.999 88.9616C74.6506 88.9616 89.7708 74.0529 89.7708 55.6621C89.7708 37.2712 74.6506 22.3625 55.999 22.3625C37.3473 22.3625 22.2272 37.2712 22.2272 55.6621C22.2272 74.0529 37.3473 88.9616 55.999 88.9616Z" fill="white"/>
<path d="M54.7267 105.175L55.999 107.212L57.2713 105.175L64.6812 93.3086C82.2039 89.3997 95.3572 73.9244 95.3572 55.4394C95.3572 34.0098 77.6826 16.6127 55.999 16.6127C34.3153 16.6127 16.6429 34.01 16.6429 55.4394C16.6429 73.9243 29.794 89.3997 47.3167 93.3086L54.7267 105.175ZM55.999 84.8684C39.4845 84.8684 26.1313 71.6737 26.1313 55.4394C26.1313 39.2052 39.4844 26.0124 55.999 26.0124C72.5134 26.0124 85.8667 39.2071 85.8667 55.4415C85.8667 71.6757 72.5156 84.8684 55.999 84.8684Z" fill="#FFA115" stroke="white" stroke-width="3"/>
</g>
<path d="M41.7589 34.5694L56.0005 55.0997L70.2421 34.5694H41.7589Z" fill="#69D6F4"/>
<path d="M55.9994 56.2454L40.8563 34.4136L41.9121 33.647L55.9994 53.9561L70.0887 33.647L71.1445 34.4136L55.9994 56.2454Z" fill="#AE7D5E"/>
<path d="M55.9995 67.0218C49.5749 67.0218 44.3482 61.6746 44.3482 55.1016C44.3482 48.5287 49.5749 43.1815 55.9995 43.1815C62.4242 43.1815 67.6508 48.5287 67.6508 55.1016C67.6508 61.6746 62.4242 67.0218 55.9995 67.0218ZM55.9995 44.5034C50.2881 44.5034 45.6424 49.2563 45.6424 55.0996C45.6424 60.9429 50.2881 65.6958 55.9995 65.6958C61.711 65.6958 66.3567 60.9429 66.3567 55.0996C66.3567 49.2563 61.711 44.5034 55.9995 44.5034Z" fill="#AE7D5E"/>
<path d="M55.9998 71.6581C47.077 71.6581 39.817 64.2305 39.817 55.1018C39.817 45.9731 47.077 38.5435 55.9998 38.5435C64.9225 38.5435 72.1826 45.9711 72.1826 55.0998C72.1826 64.2285 64.9225 71.6581 55.9998 71.6581ZM55.9998 39.8675C47.7902 39.8675 41.1111 46.7007 41.1111 55.0998C41.1111 63.4988 47.7902 70.332 55.9998 70.332C64.2094 70.332 70.8884 63.4988 70.8884 55.0998C70.8884 46.7007 64.2094 39.8675 55.9998 39.8675Z" fill="#AE7D5E"/>
<path d="M56 76.2941C44.5791 76.2941 35.2857 66.7862 35.2857 55.0997C35.2857 43.4132 44.5791 33.9073 56 33.9073C67.4209 33.9073 76.7143 43.4132 76.7143 55.0997C76.7143 66.7862 67.4209 76.2921 56 76.2921V76.2941ZM56 35.2314C45.2923 35.2314 36.5799 44.1449 36.5799 55.0997C36.5799 66.0546 45.2923 74.9681 56 74.9681C66.7077 74.9681 75.4202 66.0546 75.4202 55.0997C75.4202 44.1449 66.7077 35.2314 56 35.2314Z" fill="#AE7D5E"/>
<path d="M55.9996 52.4516C54.5713 52.4516 53.4093 53.6404 53.4093 55.0996C53.4093 56.5589 54.5713 57.7497 55.9996 57.7497C57.428 57.7497 58.5879 56.561 58.5879 55.0996C58.5879 53.6383 57.426 52.4516 55.9996 52.4516Z" fill="#FEB902"/>
<path d="M56.0007 62.3858C52.0742 62.3858 48.8809 59.1188 48.8809 55.1017C48.8809 51.0846 52.0742 47.8176 56.0007 47.8176C59.9272 47.8176 63.1205 51.0846 63.1205 55.1017C63.1205 59.1188 59.9272 62.3858 56.0007 62.3858ZM56.0007 49.1396C52.7874 49.1396 50.175 51.8142 50.175 55.0997C50.175 58.3851 52.7894 61.0598 56.0007 61.0598C59.212 61.0598 61.8263 58.3851 61.8263 55.0997C61.8263 51.8142 59.212 49.1396 56.0007 49.1396Z" fill="#AE7D5E"/>
<path d="M55.9999 37.2194C54.9281 37.2194 54.0567 38.111 54.0567 39.2075C54.0567 40.304 54.9281 41.1935 55.9999 41.1935C57.0717 41.1935 57.9411 40.3019 57.9411 39.2075C57.9411 38.113 57.0697 37.2194 55.9999 37.2194Z" fill="#F95555"/>
<path d="M63.1212 55.0998C62.0514 55.0998 61.18 55.9914 61.18 57.0879C61.18 58.1844 62.0514 59.0739 63.1212 59.0739C64.191 59.0739 65.0644 58.1823 65.0644 57.0879C65.0644 55.9934 64.193 55.0998 63.1212 55.0998Z" fill="#AEAEAE"/>
<path d="M44.9962 55.0998C43.9244 55.0998 43.055 55.9914 43.055 57.0879C43.055 58.1844 43.9264 59.0739 44.9962 59.0739C46.066 59.0739 46.9374 58.1823 46.9374 57.0879C46.9374 55.9934 46.066 55.0998 44.9962 55.0998Z" fill="#AEAEAE"/>
<path d="M64.4159 65.698C63.3461 65.698 62.4746 66.5896 62.4746 67.6841C62.4746 68.7785 63.3461 69.6701 64.4159 69.6701C65.4856 69.6701 66.3591 68.7785 66.3591 67.6841C66.3591 66.5896 65.4876 65.698 64.4159 65.698Z" fill="#4DC889"/>
<path d="M54.6895 74.925L54.7396 74.265L54.6815 74.925L54.0365 74.8778L54.1286 73.5559L54.7737 73.603L54.6916 74.925H54.6895ZM59.2751 74.6565L59.0928 73.3447L60.3469 73.1623L60.5873 74.4085L59.9162 74.5642L59.2751 74.6565ZM49.7353 73.2095L49.501 73.8264L48.908 73.5948L49.3247 72.3712L49.9257 72.5762L49.7353 73.2095ZM64.3776 73.0312L63.7706 71.908L64.3115 71.5842L64.65 72.1499L64.9385 72.7422L64.3776 73.0312ZM44.8152 71.3444L44.3064 70.9673L45.0035 69.8974L45.5344 70.2417L45.1978 70.8074L44.8172 71.3423L44.8152 71.3444ZM68.7849 70.0552L67.9074 69.1268L68.3542 68.6697L68.8209 69.1288L69.2537 69.6228L68.7849 70.0552ZM41.4076 68.1799L40.9248 67.6245L40.5441 67.0895L41.5919 66.3107L41.9725 66.8456L42.4052 67.3375L41.4076 68.1799ZM72.2366 66.0012L71.1448 65.29L71.8339 64.1833L72.9257 64.8473L72.2366 66.0012ZM38.1942 63.0417L38.7912 62.7875L38.1922 63.0417L37.9458 62.4411L39.1058 61.9083L39.3722 62.4985L38.7892 62.7875L38.1922 63.0417H38.1942ZM74.5184 61.0864L73.3084 60.7667L73.4486 60.1436L74.0836 60.2809L74.7027 60.4756L74.5184 61.0864ZM36.864 58.506L36.6717 57.1799L37.9538 56.9934L38.1362 58.301L36.864 58.5081V58.506ZM75.4199 55.776H74.1257V54.3721L75.4199 54.3598V55.776ZM37.9358 53.2817L36.6557 53.0808L36.7539 52.427L37.3929 52.5275L36.7539 52.425L36.848 51.7958L38.0861 51.9249L38.034 52.6258L37.9358 53.2817ZM73.5788 50.6521L73.2923 49.3834L74.4943 49.0391L74.6947 49.7073L74.8409 50.3529L73.5788 50.6501V50.6521ZM39.0857 48.3443L37.9178 47.834L38.4487 46.5981L39.6246 47.1535L39.0877 48.3443H39.0857ZM71.7798 45.975L71.1348 44.8416L72.2126 44.155L72.8997 45.3069L71.7818 45.975H71.7798ZM41.9224 43.4193L40.9107 42.5912L41.3154 42.0768L42.3251 42.9028L41.9224 43.4193ZM68.7749 41.9641L67.8714 41.0397L68.7308 40.0949L69.2336 40.5601L69.6924 41.0295L68.7769 41.9661L68.7749 41.9641ZM44.9614 40.3326L44.2443 39.2792L44.7952 38.8713L45.3421 38.5167L46.0372 39.6337L44.9614 40.3326ZM64.8263 38.9266L63.7265 38.2708L64.3115 37.1353L64.9205 37.4489L65.4794 37.783L64.8263 38.9266ZM49.2766 37.8445L48.8379 36.6311L50.0819 36.1741L50.4906 37.4305L49.2766 37.8445ZM60.2968 37.0288L59.6157 36.9263L58.9847 36.7767L59.2751 35.4854L59.9062 35.6351L60.5112 35.7765L60.2948 37.0267L60.2968 37.0288ZM54.0765 36.6496L53.9684 35.3338L55.2745 35.2354L55.3667 36.5574L54.0765 36.6496Z" fill="#AE7D5E"/>
<defs>
<filter id="filter0_f_1_89" x="33" y="95.3239" width="46" height="28.6761" filterUnits="userSpaceOnUse" color-interpolation-filters="sRGB">
<feFlood flood-opacity="0" result="BackgroundImageFix"/>
<feBlend mode="normal" in="SourceGraphic" in2="BackgroundImageFix" result="shape"/>
<feGaussianBlur stdDeviation="4" result="effect1_foregroundBlur_1_89"/>
</filter>
<filter id="filter1_d_1_89" x="0.142883" y="0.112671" width="111.714" height="124.932" filterUnits="userSpaceOnUse" color-interpolation-filters="sRGB">
<feFlood flood-opacity="0" result="BackgroundImageFix"/>
<feColorMatrix in="SourceAlpha" type="matrix" values="0 0 0 0 0 0 0 0 0 0 0 0 0 0 0 0 0 0 127 0" result="hardAlpha"/>
<feOffset/>
<feGaussianBlur stdDeviation="7.5"/>
<feComposite in2="hardAlpha" operator="out"/>
<feColorMatrix type="matrix" values="0 0 0 0 0 0 0 0 0 0 0 0 0 0 0 0 0 0 0.4 0"/>
<feBlend mode="normal" in2="BackgroundImageFix" result="effect1_dropShadow_1_89"/>
<feBlend mode="normal" in="SourceGraphic" in2="effect1_dropShadow_1_89" result="shape"/>
</filter>
</defs>
</svg>
