<svg width="91" height="104" viewBox="0 0 91 104" fill="none" xmlns="http://www.w3.org/2000/svg">
<g filter="url(#filter0_d_397_498)">
<path d="M76.7398 46.3224C76.7398 28.6962 62.7269 14.3589 45.4998 14.3589C28.2726 14.3589 14.2598 28.6962 14.2598 46.3224C14.2598 61.8584 25.1002 75.0929 40.036 77.7873L40.9655 77.9557L45.7999 85.8178L50.6989 77.8567L51.5993 77.6751C66.1672 74.7264 76.7398 61.5414 76.7398 46.3257V46.3224Z" fill="#6EB567"/>
<path d="M45.5 10C25.9266 10 10 26.2955 10 46.3222C10 63.6512 21.8699 78.4574 38.358 81.8981L45.8001 94L53.3326 81.7495C69.4205 78.0414 80.9968 63.2945 80.9968 46.3222C81 26.2955 65.0734 10 45.5 10ZM50.6991 77.8531L45.8001 85.8143L40.9657 77.9522L40.0362 77.7838C25.1004 75.0894 14.26 61.8549 14.26 46.3189C14.26 28.696 28.2728 14.3587 45.5 14.3587C62.7272 14.3587 76.74 28.696 76.74 46.3222C76.74 61.5379 66.1675 74.7228 51.5995 77.6715L50.6991 77.8531Z" fill="white"/>
</g>
<path d="M53.7399 50.5784C54.834 51.7837 54.8275 53.722 53.7302 54.914C52.6297 56.106 50.8515 56.0994 49.7575 54.9008C48.6666 53.7022 48.6731 51.7606 49.7704 50.5685C50.8709 49.3765 52.6459 49.3831 53.7367 50.5784H53.7399Z" fill="#3E3F42"/>
<path d="M28.7643 50.7402L33.9473 56.3801L32.5112 57.9551L31.8109 57.1957L30.8685 58.2424C30.6684 58.4636 30.3425 58.467 30.1391 58.2457L27.1959 55.0791C26.9925 54.8645 26.9925 54.5078 27.1926 54.2833L28.1544 53.22L27.325 52.3153L28.7643 50.7402Z" fill="#3E3F42"/>
<path d="M54.4317 33.9462C55.2482 34.841 55.2482 36.2906 54.4285 37.1821L46.9767 45.3018L49.9975 48.617C49.5747 48.8316 49.1777 49.1255 48.8292 49.5053C48.4742 49.8916 48.1967 50.3341 47.9966 50.8029L44.9758 47.4844L37.821 55.2838C37.0012 56.1753 35.6748 56.172 34.8551 55.2838L29.514 49.4458C28.6942 48.5477 28.6975 47.0981 29.514 46.2065L46.128 28.1082C46.9477 27.2166 48.2773 27.2166 49.0938 28.1115L54.435 33.9495L54.4317 33.9462Z" fill="#3E3F42"/>
<path d="M65.3558 44.9849L65.3816 60.8444L62.4189 60.8511L62.4125 54.9173L55.3867 54.9272C56.058 53.6097 56.1096 51.962 55.3996 50.5521L62.406 50.5422L62.3964 44.9915L65.3558 44.9849Z" fill="#3E3F42"/>
<defs>
<filter id="filter0_d_397_498" x="0" y="0" width="90.9961" height="104" filterUnits="userSpaceOnUse" color-interpolation-filters="sRGB">
<feFlood flood-opacity="0" result="BackgroundImageFix"/>
<feColorMatrix in="SourceAlpha" type="matrix" values="0 0 0 0 0 0 0 0 0 0 0 0 0 0 0 0 0 0 127 0" result="hardAlpha"/>
<feOffset/>
<feGaussianBlur stdDeviation="5"/>
<feComposite in2="hardAlpha" operator="out"/>
<feColorMatrix type="matrix" values="0 0 0 0 0 0 0 0 0 0 0 0 0 0 0 0 0 0 0.25 0"/>
<feBlend mode="normal" in2="BackgroundImageFix" result="effect1_dropShadow_397_498"/>
<feBlend mode="normal" in="SourceGraphic" in2="effect1_dropShadow_397_498" result="shape"/>
</filter>
</defs>
</svg>
