<svg width="112" height="125" viewBox="0 0 112 125" fill="none" xmlns="http://www.w3.org/2000/svg">
<g filter="url(#filter0_f_1_256)">
<ellipse cx="55.8571" cy="109.549" rx="15" ry="6.33803" fill="black" fill-opacity="0.4"/>
</g>
<g filter="url(#filter1_d_1_256)">
<path d="M55.8561 88.8489C74.5078 88.8489 89.6279 73.9402 89.6279 55.5494C89.6279 37.1586 74.5078 22.2498 55.8561 22.2498C37.2044 22.2498 22.0843 37.1586 22.0843 55.5494C22.0843 73.9402 37.2044 88.8489 55.8561 88.8489Z" fill="white"/>
<path d="M54.5838 105.062L55.8561 107.1L57.1284 105.062L64.5383 93.1959C82.061 89.287 95.2143 73.8117 95.2143 55.3267C95.2143 33.8972 77.5397 16.5 55.8561 16.5C34.1724 16.5 16.5 33.8973 16.5 55.3267C16.5 73.8116 29.6511 89.287 47.1739 93.1959L54.5838 105.062ZM55.8561 84.7557C39.3416 84.7557 25.9884 71.561 25.9884 55.3267C25.9884 39.0925 39.3415 25.8998 55.8561 25.8998C72.3705 25.8998 85.7238 39.0945 85.7238 55.3288C85.7238 71.563 72.3727 84.7557 55.8561 84.7557Z" fill="#FF0000" stroke="white" stroke-width="3"/>
</g>
<path d="M65.3804 61.897L63.3372 63.6015H53.117V61.897H62.6554H65.3804Z" fill="#AAB2BD"/>
<path d="M76.9641 73.0065V75.6934C73.4434 75.6934 73.4434 73.0065 69.9248 73.0065C66.4062 73.0065 66.4041 75.6934 62.8834 75.6934C59.3627 75.6934 59.3627 73.0065 55.8441 73.0065C52.3255 73.0065 52.3234 75.6934 48.8027 75.6934C45.282 75.6934 45.282 73.0065 41.7612 73.0065C38.2405 73.0065 38.2405 75.6934 34.7198 75.6934V73.0065C35.5493 73.0065 35.828 72.7942 36.5731 72.2261C37.2738 71.6912 38.2279 70.9628 39.6758 70.5798C40.2795 70.4196 40.9697 70.3197 41.7634 70.3197C44.4546 70.3197 45.9574 71.4664 46.9516 72.2261C47.6966 72.7942 47.9753 73.0065 48.8048 73.0065C49.6343 73.0065 49.9129 72.7942 50.6559 72.2261C51.6501 71.4664 53.1529 70.3197 55.8462 70.3197C58.5395 70.3197 60.0402 71.4664 61.0344 72.2261C61.7795 72.7942 62.0581 73.0065 62.8855 73.0065C63.7129 73.0065 63.9937 72.7942 64.7366 72.2261C65.7308 71.4664 67.2336 70.3197 69.9269 70.3197C70.7206 70.3197 71.4087 70.4196 72.0124 70.5798C73.4582 70.9628 74.4123 71.6912 75.1151 72.2261C75.8602 72.7942 76.1388 73.0065 76.9663 73.0065H76.9641Z" fill="#69D6F4"/>
<path d="M76.2824 38.0732V42.1046L69.4689 38.0732H73.5574H76.2824Z" fill="#AAB2BD"/>
<path d="M76.2824 42.1046H73.5574H70.8324L64.019 38.0732H69.4689L76.2824 42.1046Z" fill="#969FAA"/>
<path d="M74.9209 60.9146V63.6015C74.7795 64.5276 74.56 65.4267 74.2645 66.2884H37.4216C37.1282 65.4267 36.9065 64.5276 36.7651 63.6015V60.9146H43.5786L45.6218 63.6015H63.3372L65.3804 60.9146H74.9209Z" fill="#CCD1D9"/>
<path d="M37.4216 66.2904H74.2645C73.7347 67.8472 72.9685 69.2916 72.0102 70.5798C71.4066 70.4196 70.7164 70.3197 69.9248 70.3197C67.2336 70.3197 65.7308 71.4664 64.7345 72.2261C63.9894 72.7943 63.7108 73.0065 62.8834 73.0065C62.056 73.0065 61.7753 72.7943 61.0323 72.2261C60.0381 71.4664 58.5353 70.3197 55.8441 70.3197C53.1529 70.3197 51.6501 71.4664 50.6538 72.2261C49.9087 72.7943 49.6301 73.0065 48.8027 73.0065C47.9753 73.0065 47.6945 72.7943 46.9494 72.2261C45.9553 71.4664 44.4524 70.3197 41.7612 70.3197C40.9676 70.3197 40.2795 70.4196 39.6737 70.5798C38.9286 69.5788 38.3017 68.484 37.8078 67.3144C37.6664 66.9793 37.5377 66.6359 37.4195 66.2884L37.4216 66.2904Z" fill="#AAB2BD"/>
<path d="M73.5574 42.1046V56.8833H70.8324V52.8541H69.4689V42.1046H70.8324H73.5574Z" fill="#AAB2BD"/>
<path d="M73.5574 35.3864H69.4689V38.0732H73.5574V35.3864Z" fill="#AAB2BD"/>
<path d="M70.8325 52.8541V56.8833H68.1075H65.3804V52.8541H69.4689H70.8325Z" fill="#F95555"/>
<path d="M70.8325 42.1046H69.4689H65.3804L58.5691 38.0732H64.019L70.8325 42.1046Z" fill="#AAB2BD"/>
<path d="M73.5574 56.8833V60.9147H68.1075H62.6554V56.8833H68.1075H73.5574Z" fill="#F95555"/>
<path d="M65.3804 42.1046H59.9305H58.5691V38.0732L65.3804 42.1046Z" fill="#969FAA"/>
<path d="M64.019 46.1359V50.1651H57.2055V46.1359H59.9305H64.019Z" fill="#FEB902"/>
<path d="M54.4806 46.1359V50.1651H47.6671V46.1359H51.7556H54.4806Z" fill="#FEB902"/>
<path d="M53.117 38.0732V42.1046H51.7556H46.3036L53.117 38.0732Z" fill="#969FAA"/>
<path d="M53.117 38.0732L46.3036 42.1046H42.2151H40.8536L47.6671 38.0732H53.117Z" fill="#AAB2BD"/>
<path d="M49.0285 58.2278V63.6015H45.6218L43.5786 60.9146H40.8536V58.2278H42.2151H47.6671H49.0285Z" fill="#4DC889"/>
<path d="M47.665 55.5409H42.2151V58.2278H47.665V55.5409Z" fill="#4DC889"/>
<path d="M47.6671 38.0732L40.8536 42.1046H38.1287H35.4016L42.2151 38.0732H47.6671Z" fill="#969FAA"/>
<path d="M42.2151 55.5409V58.2278H40.8536V60.9146H38.1287V42.1046H40.8536H42.2151V55.5409Z" fill="#AAB2BD"/>
<path d="M42.2172 35.3864H38.1287V38.0732H42.2172V35.3864Z" fill="#AAB2BD"/>
<path d="M42.2151 38.0732L35.4016 42.1046V38.0732H38.1287H42.2151Z" fill="#AAB2BD"/>
<path d="M51.6353 42.0213H50.5799V46.1837H51.6353V42.0213Z" fill="#CCD1D9"/>
<path d="M61.1336 42.0213H60.0782V46.1837H61.1336V42.0213Z" fill="#CCD1D9"/>
<path d="M47.8486 67.4101H43.587V69.0335H47.8486V67.4101Z" fill="#CCD1D9"/>
<path d="M53.7671 67.4101H49.5055V69.0335H53.7671V67.4101Z" fill="#CCD1D9"/>
<defs>
<filter id="filter0_f_1_256" x="32.8571" y="95.2113" width="46" height="28.6761" filterUnits="userSpaceOnUse" color-interpolation-filters="sRGB">
<feFlood flood-opacity="0" result="BackgroundImageFix"/>
<feBlend mode="normal" in="SourceGraphic" in2="BackgroundImageFix" result="shape"/>
<feGaussianBlur stdDeviation="4" result="effect1_foregroundBlur_1_256"/>
</filter>
<filter id="filter1_d_1_256" x="0" y="0" width="111.714" height="124.932" filterUnits="userSpaceOnUse" color-interpolation-filters="sRGB">
<feFlood flood-opacity="0" result="BackgroundImageFix"/>
<feColorMatrix in="SourceAlpha" type="matrix" values="0 0 0 0 0 0 0 0 0 0 0 0 0 0 0 0 0 0 127 0" result="hardAlpha"/>
<feOffset/>
<feGaussianBlur stdDeviation="7.5"/>
<feComposite in2="hardAlpha" operator="out"/>
<feColorMatrix type="matrix" values="0 0 0 0 0 0 0 0 0 0 0 0 0 0 0 0 0 0 0.4 0"/>
<feBlend mode="normal" in2="BackgroundImageFix" result="effect1_dropShadow_1_256"/>
<feBlend mode="normal" in="SourceGraphic" in2="effect1_dropShadow_1_256" result="shape"/>
</filter>
</defs>
</svg>
