<svg width="111" height="125" viewBox="0 0 111 125" fill="none" xmlns="http://www.w3.org/2000/svg">
<g filter="url(#filter0_f_1_295)">
<ellipse cx="55.3839" cy="109.549" rx="14.8125" ry="6.33803" fill="black" fill-opacity="0.4"/>
</g>
<g filter="url(#filter1_d_1_295)">
<path d="M55.3829 88.8489C73.8014 88.8489 88.7326 73.9402 88.7326 55.5494C88.7326 37.1586 73.8014 22.2498 55.3829 22.2498C36.9644 22.2498 22.0332 37.1586 22.0332 55.5494C22.0332 73.9402 36.9644 88.8489 55.3829 88.8489Z" fill="white"/>
<path d="M54.1061 105.055L55.3829 107.125L56.6597 105.055L63.9744 93.1928C81.2916 89.2762 94.2679 73.7944 94.2679 55.3267C94.2679 33.9149 76.8234 16.5 55.3829 16.5C33.9423 16.5 16.5 33.915 16.5 55.3267C16.5 73.7943 29.4741 89.2762 46.7913 93.1928L54.1061 105.055ZM55.3829 84.7557C39.1028 84.7557 25.9073 71.5787 25.9073 55.3267C25.9073 39.0748 39.1027 25.8998 55.3829 25.8998C71.6629 25.8998 84.8585 39.0767 84.8585 55.3288C84.8585 71.5808 71.6651 84.7557 55.3829 84.7557Z" fill="#A9A9A9" stroke="white" stroke-width="3"/>
</g>
<path d="M64.7882 61.897L62.7705 63.6015H52.6781V61.897H62.0973H64.7882Z" fill="#AAB2BD"/>
<path d="M76.2271 73.0065V75.6934C72.7504 75.6934 72.7504 73.0065 69.2758 73.0065C65.8012 73.0065 65.7991 75.6934 62.3224 75.6934C58.8457 75.6934 58.8457 73.0065 55.3711 73.0065C51.8964 73.0065 51.8943 75.6934 48.4176 75.6934C44.9409 75.6934 44.9409 73.0065 41.4642 73.0065C37.9875 73.0065 37.9875 75.6934 34.5108 75.6934V73.0065C35.33 73.0065 35.6051 72.7942 36.3409 72.2261C37.0329 71.6912 37.975 70.9628 39.4049 70.5798C40.001 70.4196 40.6826 70.3197 41.4663 70.3197C44.1239 70.3197 45.6079 71.4664 46.5897 72.2261C47.3254 72.7942 47.6006 73.0065 48.4197 73.0065C49.2389 73.0065 49.514 72.7942 50.2477 72.2261C51.2294 71.4664 52.7135 70.3197 55.3731 70.3197C58.0328 70.3197 59.5147 71.4664 60.4965 72.2261C61.2323 72.7942 61.5074 73.0065 62.3245 73.0065C63.1415 73.0065 63.4187 72.7942 64.1524 72.2261C65.1342 71.4664 66.6182 70.3197 69.2779 70.3197C70.0616 70.3197 70.7411 70.4196 71.3372 70.5798C72.765 70.9628 73.7071 71.6912 74.4012 72.2261C75.137 72.7942 75.4121 73.0065 76.2292 73.0065H76.2271Z" fill="#69D6F4"/>
<path d="M75.5539 38.0732V42.1046L68.8256 38.0732H72.863H75.5539Z" fill="#AAB2BD"/>
<path d="M75.5539 42.1046H72.863H70.1721L63.4438 38.0732H68.8256L75.5539 42.1046Z" fill="#969FAA"/>
<path d="M74.2094 60.9146V63.6015C74.0698 64.5276 73.853 65.4267 73.5612 66.2884H37.1788C36.8891 65.4267 36.6702 64.5276 36.5306 63.6015V60.9146H43.2589L45.2765 63.6015H62.7705L64.7882 60.9146H74.2094Z" fill="#CCD1D9"/>
<path d="M37.1788 66.2904H73.5612C73.038 67.8472 72.2814 69.2916 71.3351 70.5798C70.739 70.4196 70.0574 70.3197 69.2758 70.3197C66.6182 70.3197 65.1342 71.4664 64.1504 72.2261C63.4146 72.7943 63.1394 73.0065 62.3224 73.0065C61.5053 73.0065 61.2281 72.7943 60.4944 72.2261C59.5127 71.4664 58.0286 70.3197 55.3711 70.3197C52.7135 70.3197 51.2294 71.4664 50.2456 72.2261C49.5099 72.7943 49.2347 73.0065 48.4177 73.0065C47.6006 73.0065 47.3234 72.7943 46.5876 72.2261C45.6059 71.4664 44.1218 70.3197 41.4642 70.3197C40.6805 70.3197 40.001 70.4196 39.4028 70.5798C38.667 69.5788 38.048 68.484 37.5602 67.3144C37.4206 66.9793 37.2935 66.6359 37.1767 66.2884L37.1788 66.2904Z" fill="#AAB2BD"/>
<path d="M72.863 42.1046V56.8833H70.1721V52.8541H68.8256V42.1046H70.1721H72.863Z" fill="#AAB2BD"/>
<path d="M72.863 35.3864H68.8256V38.0732H72.863V35.3864Z" fill="#AAB2BD"/>
<path d="M70.172 52.8541V56.8833H67.4811H64.7882V52.8541H68.8256H70.172Z" fill="#F95555"/>
<path d="M70.172 42.1046H68.8256H64.7882L58.062 38.0732H63.4438L70.172 42.1046Z" fill="#AAB2BD"/>
<path d="M72.8629 56.8833V60.9147H67.4811H62.0973V56.8833H67.4811H72.8629Z" fill="#F95555"/>
<path d="M64.7882 42.1046H59.4064H58.062V38.0732L64.7882 42.1046Z" fill="#969FAA"/>
<path d="M63.4437 46.1359V50.1651H56.7155V46.1359H59.4064H63.4437Z" fill="#FEB902"/>
<path d="M54.0246 46.1359V50.1651H47.2963V46.1359H51.3337H54.0246Z" fill="#FEB902"/>
<path d="M52.6781 38.0732V42.1046H51.3337H45.9498L52.6781 38.0732Z" fill="#969FAA"/>
<path d="M52.6781 38.0732L45.9498 42.1046H41.9124H40.568L47.2963 38.0732H52.6781Z" fill="#AAB2BD"/>
<path d="M48.6407 58.2278V63.6015H45.2765L43.2589 60.9146H40.568V58.2278H41.9124H47.2963H48.6407Z" fill="#4DC889"/>
<path d="M47.2942 55.5409H41.9124V58.2278H47.2942V55.5409Z" fill="#4DC889"/>
<path d="M47.2963 38.0732L40.568 42.1046H37.8771H35.1841L41.9124 38.0732H47.2963Z" fill="#969FAA"/>
<path d="M41.9124 55.5409V58.2278H40.568V60.9146H37.8771V42.1046H40.568H41.9124V55.5409Z" fill="#AAB2BD"/>
<path d="M41.9145 35.3864H37.8771V38.0732H41.9145V35.3864Z" fill="#AAB2BD"/>
<path d="M41.9124 38.0732L35.1841 42.1046V38.0732H37.8771H41.9124Z" fill="#AAB2BD"/>
<path d="M51.2148 42.0213H50.1727V46.1837H51.2148V42.0213Z" fill="#CCD1D9"/>
<path d="M60.5944 42.0213H59.5523V46.1837H60.5944V42.0213Z" fill="#CCD1D9"/>
<path d="M47.4755 67.4101H43.2672V69.0335H47.4755V67.4101Z" fill="#CCD1D9"/>
<path d="M53.32 67.4101H49.1117V69.0335H53.32V67.4101Z" fill="#CCD1D9"/>
<defs>
<filter id="filter0_f_1_295" x="32.5714" y="95.2113" width="45.625" height="28.6761" filterUnits="userSpaceOnUse" color-interpolation-filters="sRGB">
<feFlood flood-opacity="0" result="BackgroundImageFix"/>
<feBlend mode="normal" in="SourceGraphic" in2="BackgroundImageFix" result="shape"/>
<feGaussianBlur stdDeviation="4" result="effect1_foregroundBlur_1_295"/>
</filter>
<filter id="filter1_d_1_295" x="0" y="0" width="110.768" height="124.983" filterUnits="userSpaceOnUse" color-interpolation-filters="sRGB">
<feFlood flood-opacity="0" result="BackgroundImageFix"/>
<feColorMatrix in="SourceAlpha" type="matrix" values="0 0 0 0 0 0 0 0 0 0 0 0 0 0 0 0 0 0 127 0" result="hardAlpha"/>
<feOffset/>
<feGaussianBlur stdDeviation="7.5"/>
<feComposite in2="hardAlpha" operator="out"/>
<feColorMatrix type="matrix" values="0 0 0 0 0 0 0 0 0 0 0 0 0 0 0 0 0 0 0.4 0"/>
<feBlend mode="normal" in2="BackgroundImageFix" result="effect1_dropShadow_1_295"/>
<feBlend mode="normal" in="SourceGraphic" in2="effect1_dropShadow_1_295" result="shape"/>
</filter>
</defs>
</svg>
