<svg width="93" height="104" viewBox="0 0 93 104" fill="none" xmlns="http://www.w3.org/2000/svg">
<g filter="url(#filter0_d_397_489)">
<path d="M78.6209 46.3224C78.6209 28.6962 64.2133 14.3589 46.5009 14.3589C28.7884 14.3589 14.3809 28.6962 14.3809 46.3224C14.3809 61.8584 25.5266 75.0929 40.8832 77.7873L41.8388 77.9557L46.8095 85.8178L51.8465 77.8567L52.7722 77.6751C67.7505 74.7264 78.6209 61.5414 78.6209 46.3257V46.3224Z" fill="#F7D749"/>
<path d="M46.5 10C26.3752 10 10 26.2955 10 46.3222C10 63.6512 22.2043 78.4574 39.1569 81.8981L46.8086 94L54.5532 81.7495C71.0944 78.0414 82.9967 63.2945 82.9967 46.3222C83 26.2955 66.6248 10 46.5 10ZM51.8456 77.8531L46.8086 85.8143L41.838 77.9522L40.8823 77.7838C25.5258 75.0894 14.38 61.8549 14.38 46.3189C14.38 28.696 28.7875 14.3587 46.5 14.3587C64.2125 14.3587 78.62 28.696 78.62 46.3222C78.62 61.5379 67.7496 74.7228 52.7714 77.6715L51.8456 77.8531Z" fill="white"/>
</g>
<path d="M54.9707 50.5784C56.0956 51.7837 56.089 53.722 54.9608 54.914C53.8293 56.106 52.001 56.0994 50.8761 54.9008C49.7545 53.7022 49.7612 51.7606 50.8894 50.5685C52.0209 49.3765 53.8459 49.3831 54.9674 50.5784H54.9707Z" fill="#3E3F42"/>
<path d="M29.2913 50.7402L34.6203 56.3801L33.1437 57.9551L32.4237 57.1957L31.4548 58.2424C31.249 58.4636 30.9139 58.467 30.7049 58.2457L27.6787 55.0791C27.4696 54.8645 27.4696 54.5078 27.6754 54.2833L28.6642 53.22L27.8114 52.3153L29.2913 50.7402Z" fill="#3E3F42"/>
<path d="M55.6802 33.9462C56.5197 34.841 56.5197 36.2906 55.6769 37.1821L48.0152 45.3018L51.1211 48.617C50.6864 48.8316 50.2782 49.1255 49.9199 49.5053C49.5549 49.8916 49.2695 50.3341 49.0638 50.8029L45.958 47.4844L38.6016 55.2838C37.7587 56.1753 36.395 56.172 35.5521 55.2838L30.0606 49.4458C29.2177 48.5477 29.2211 47.0981 30.0606 46.2065L47.1426 28.1082C47.9854 27.2166 49.3525 27.2166 50.192 28.1115L55.6836 33.9495L55.6802 33.9462Z" fill="#3E3F42"/>
<path d="M66.912 44.9849L66.9385 60.8444L63.8924 60.8511L63.8858 54.9173L56.6621 54.9272C57.3523 53.6097 57.4054 51.962 56.6754 50.5521L63.8792 50.5422L63.8692 44.9915L66.912 44.9849Z" fill="#3E3F42"/>
<defs>
<filter id="filter0_d_397_489" x="0" y="0" width="92.9961" height="104" filterUnits="userSpaceOnUse" color-interpolation-filters="sRGB">
<feFlood flood-opacity="0" result="BackgroundImageFix"/>
<feColorMatrix in="SourceAlpha" type="matrix" values="0 0 0 0 0 0 0 0 0 0 0 0 0 0 0 0 0 0 127 0" result="hardAlpha"/>
<feOffset/>
<feGaussianBlur stdDeviation="5"/>
<feComposite in2="hardAlpha" operator="out"/>
<feColorMatrix type="matrix" values="0 0 0 0 0 0 0 0 0 0 0 0 0 0 0 0 0 0 0.25 0"/>
<feBlend mode="normal" in2="BackgroundImageFix" result="effect1_dropShadow_397_489"/>
<feBlend mode="normal" in="SourceGraphic" in2="effect1_dropShadow_397_489" result="shape"/>
</filter>
</defs>
</svg>
